<svg width="1200" height="1120" viewBox="0 0 1200 1120" fill="none" xmlns="http://www.w3.org/2000/svg">
  <defs>
    <linearGradient id="panelBg" x1="120" y1="80" x2="1080" y2="1040" gradientUnits="userSpaceOnUse">
      <stop stop-color="#0F1730"/>
      <stop offset="1" stop-color="#182347"/>
    </linearGradient>
    <radialGradient id="coreGlow" cx="0" cy="0" r="1" gradientUnits="userSpaceOnUse" gradientTransform="translate(606 542) rotate(90) scale(300 300)">
      <stop stop-color="#D7FF34" stop-opacity="0.78"/>
      <stop offset="0.36" stop-color="#8FFFB8" stop-opacity="0.42"/>
      <stop offset="1" stop-color="#6077FF" stop-opacity="0"/>
    </radialGradient>
    <radialGradient id="softBlue" cx="0" cy="0" r="1" gradientUnits="userSpaceOnUse" gradientTransform="translate(910 160) rotate(90) scale(340 340)">
      <stop stop-color="#5F79FF" stop-opacity="0.42"/>
      <stop offset="1" stop-color="#5F79FF" stop-opacity="0"/>
    </radialGradient>
    <radialGradient id="softLime" cx="0" cy="0" r="1" gradientUnits="userSpaceOnUse" gradientTransform="translate(242 170) rotate(90) scale(260 260)">
      <stop stop-color="#D7FF34" stop-opacity="0.28"/>
      <stop offset="1" stop-color="#D7FF34" stop-opacity="0"/>
    </radialGradient>
    <linearGradient id="glassStroke" x1="216" y1="154" x2="986" y2="914" gradientUnits="userSpaceOnUse">
      <stop stop-color="white" stop-opacity="0.26"/>
      <stop offset="1" stop-color="white" stop-opacity="0.06"/>
    </linearGradient>
    <linearGradient id="glassFill" x1="232" y1="210" x2="962" y2="882" gradientUnits="userSpaceOnUse">
      <stop stop-color="white" stop-opacity="0.14"/>
      <stop offset="1" stop-color="white" stop-opacity="0.05"/>
    </linearGradient>
    <filter id="blur64" x="-120" y="-120" width="1440" height="1360" filterUnits="userSpaceOnUse" color-interpolation-filters="sRGB">
      <feGaussianBlur stdDeviation="32"/>
    </filter>
    <filter id="blur20" x="-40" y="-40" width="1280" height="1200" filterUnits="userSpaceOnUse" color-interpolation-filters="sRGB">
      <feGaussianBlur stdDeviation="10"/>
    </filter>
    <filter id="shadow" x="82" y="54" width="1036" height="1012" filterUnits="userSpaceOnUse" color-interpolation-filters="sRGB">
      <feOffset dy="28"/>
      <feGaussianBlur stdDeviation="24"/>
      <feColorMatrix type="matrix" values="0 0 0 0 0.0196078 0 0 0 0 0.0392157 0 0 0 0 0.0941176 0 0 0 0.34 0"/>
    </filter>
  </defs>

  <g filter="url(#shadow)">
    <rect x="130" y="82" width="940" height="900" rx="52" fill="url(#panelBg)"/>
    <rect x="130.75" y="82.75" width="938.5" height="898.5" rx="51.25" stroke="url(#glassStroke)" stroke-width="1.5"/>
  </g>

  <g filter="url(#blur64)">
    <circle cx="264" cy="192" r="132" fill="url(#softLime)"/>
    <circle cx="904" cy="184" r="180" fill="url(#softBlue)"/>
    <circle cx="618" cy="538" r="236" fill="url(#coreGlow)"/>
  </g>

  <rect x="204" y="148" width="792" height="768" rx="40" fill="url(#glassFill)" stroke="url(#glassStroke)" stroke-width="1.2"/>

  <g opacity="0.45">
    <circle cx="606" cy="544" r="140" stroke="white" stroke-opacity="0.12" stroke-width="1.6" stroke-dasharray="4 10"/>
    <circle cx="606" cy="544" r="216" stroke="white" stroke-opacity="0.08" stroke-width="1.6" stroke-dasharray="4 14"/>
  </g>

  <path d="M368 314C447 286 532 286 606 330" stroke="url(#glassStroke)" stroke-width="2.5" stroke-linecap="round"/>
  <path d="M606 330C664 364 696 426 696 498" stroke="url(#glassStroke)" stroke-width="2.5" stroke-linecap="round"/>
  <path d="M314 564C356 618 434 652 512 650" stroke="url(#glassStroke)" stroke-width="2.5" stroke-linecap="round"/>
  <path d="M700 644C756 630 820 598 860 546" stroke="url(#glassStroke)" stroke-width="2.5" stroke-linecap="round"/>
  <path d="M628 716C648 780 702 832 774 854" stroke="url(#glassStroke)" stroke-width="2.5" stroke-linecap="round"/>

  <g filter="url(#blur20)">
    <circle cx="606" cy="544" r="104" fill="#D7FF34" fill-opacity="0.18"/>
    <circle cx="606" cy="544" r="146" fill="#6077FF" fill-opacity="0.12"/>
  </g>

  <g>
    <circle cx="606" cy="544" r="94" fill="white" fill-opacity="0.11" stroke="white" stroke-opacity="0.18" stroke-width="1.5"/>
    <circle cx="606" cy="544" r="54" fill="white" fill-opacity="0.17"/>
    <circle cx="606" cy="544" r="20" fill="#D7FF34"/>
  </g>

  <g>
    <rect x="290" y="236" width="186" height="110" rx="30" fill="white" fill-opacity="0.1" stroke="white" stroke-opacity="0.12" stroke-width="1.2"/>
    <circle cx="346" cy="291" r="24" fill="#D7FF34" fill-opacity="0.18"/>
    <path d="M338 295C338 288.925 342.925 284 349 284H353" stroke="#D7FF34" stroke-width="3" stroke-linecap="round"/>
    <path d="M346 305C349.866 301.134 356.134 301.134 360 305" stroke="#D7FF34" stroke-width="3" stroke-linecap="round"/>
    <circle cx="349" cy="278" r="6" fill="none" stroke="#D7FF34" stroke-width="3"/>
    <path d="M360 279H374" stroke="#D7FF34" stroke-width="3" stroke-linecap="round"/>
    <path d="M367 272V286" stroke="#D7FF34" stroke-width="3" stroke-linecap="round"/>
  </g>

  <g>
    <rect x="746" y="244" width="190" height="110" rx="30" fill="white" fill-opacity="0.1" stroke="white" stroke-opacity="0.12" stroke-width="1.2"/>
    <circle cx="802" cy="299" r="24" fill="#6077FF" fill-opacity="0.2"/>
    <path d="M790 306L798 298L790 290" stroke="#D7FF34" stroke-width="3.2" stroke-linecap="round" stroke-linejoin="round"/>
    <path d="M814 290L806 298L814 306" stroke="#D7FF34" stroke-width="3.2" stroke-linecap="round" stroke-linejoin="round"/>
    <path d="M803 286L801 310" stroke="#D7FF34" stroke-width="3.2" stroke-linecap="round"/>
  </g>

  <g>
    <rect x="238" y="622" width="196" height="116" rx="30" fill="white" fill-opacity="0.1" stroke="white" stroke-opacity="0.12" stroke-width="1.2"/>
    <circle cx="296" cy="680" r="24" fill="#8FFFB8" fill-opacity="0.16"/>
    <path d="M284 679C284 668.507 292.507 660 303 660C313.493 660 322 668.507 322 679V687" stroke="#D7FF34" stroke-width="3.2" stroke-linecap="round"/>
    <path d="M291 689H314" stroke="#D7FF34" stroke-width="3.2" stroke-linecap="round"/>
    <path d="M286 678H281C278.791 678 277 679.791 277 682V688C277 690.209 278.791 692 281 692H286" stroke="#D7FF34" stroke-width="3.2" stroke-linecap="round"/>
    <path d="M320 678H325C327.209 678 329 679.791 329 682V688C329 690.209 327.209 692 325 692H320" stroke="#D7FF34" stroke-width="3.2" stroke-linecap="round"/>
  </g>

  <g>
    <rect x="740" y="610" width="214" height="124" rx="30" fill="white" fill-opacity="0.1" stroke="white" stroke-opacity="0.12" stroke-width="1.2"/>
    <circle cx="796" cy="672" r="24" fill="#D7FF34" fill-opacity="0.14"/>
    <path d="M785 685H807" stroke="#D7FF34" stroke-width="3.2" stroke-linecap="round"/>
    <path d="M789 678H803" stroke="#D7FF34" stroke-width="3.2" stroke-linecap="round"/>
    <path d="M792 671H800" stroke="#D7FF34" stroke-width="3.2" stroke-linecap="round"/>
    <path d="M785 662L790 657L796 663L803 655L807 659" stroke="#D7FF34" stroke-width="3.2" stroke-linecap="round" stroke-linejoin="round"/>
  </g>

  <g opacity="0.65">
    <circle cx="438" cy="238" r="3.5" fill="white"/>
    <circle cx="724" cy="338" r="3" fill="#D7FF34"/>
    <circle cx="372" cy="572" r="2.5" fill="#8FFFB8"/>
    <circle cx="814" cy="564" r="3.5" fill="white"/>
    <circle cx="676" cy="786" r="3.5" fill="#6077FF"/>
    <circle cx="492" cy="850" r="2.5" fill="#D7FF34"/>
  </g>
</svg>
